<?xml version="1.0" encoding="utf-8"?>
<!-- Generator: Adobe Illustrator 25.0.1, SVG Export Plug-In . SVG Version: 6.00 Build 0)  -->
<svg version="1.1" id="Layer_1" xmlns="http://www.w3.org/2000/svg" xmlns:xlink="http://www.w3.org/1999/xlink" x="0px" y="0px"
	 viewBox="0 0 800 800" style="enable-background:new 0 0 800 800;" xml:space="preserve">
<style type="text/css">
	.st0{fill:#FFD26A;}
</style>
<path class="st0" d="M544.66,128.85c3.65-9.39,5.73-19.56,5.73-30.24c0-46.19-37.44-83.63-83.63-83.63
	c-27.3,0-51.47,13.14-66.74,33.38c-20.07-26.65-55.03-39.8-89.12-30.34c-44.51,12.34-70.59,58.42-58.25,102.93
	c0.75,2.71,1.64,5.35,2.63,7.93C127.98,184.66,39,311.71,39,459.6c0,199.37,150.41,327.77,349.79,327.77S761,658.98,761,459.6
	C761,311.69,672,184.62,544.66,128.85z"/>
</svg>
