<?xml version="1.0" encoding="utf-8"?>
<!-- Generator: Adobe Illustrator 25.0.1, SVG Export Plug-In . SVG Version: 6.00 Build 0)  -->
<svg version="1.1" id="Layer_1" xmlns="http://www.w3.org/2000/svg" xmlns:xlink="http://www.w3.org/1999/xlink" x="0px" y="0px"
	 viewBox="0 0 800 800" style="enable-background:new 0 0 800 800;" xml:space="preserve">
<style type="text/css">
	.st0{fill:url(#SVGID_1_);}
	.st1{fill:url(#SVGID_2_);}
	.st2{fill:url(#SVGID_3_);}
	.st3{fill:url(#SVGID_4_);}
	.st4{fill:url(#SVGID_5_);}
</style>
<g>
	
		<linearGradient id="SVGID_1_" gradientUnits="userSpaceOnUse" x1="438.8906" y1="38.1304" x2="560.538" y2="38.1304" gradientTransform="matrix(0.9094 -0.4159 0.4159 0.9094 -136.363 592.1284)">
		<stop  offset="0" style="stop-color:#CE8AA0"/>
		<stop  offset="1" style="stop-color:#82425D"/>
	</linearGradient>
	<path class="st0" d="M420.4,498.3L420.4,498.3c-10.3,12.5-29.3,13.2-40.4,1.4L232.5,343.5l0,0L414,458.4
		C427.7,467.1,430.7,485.8,420.4,498.3z"/>
	<g>
		<linearGradient id="SVGID_2_" gradientUnits="userSpaceOnUse" x1="717.6724" y1="457.0909" x2="415.1105" y2="745.1066">
			<stop  offset="0" style="stop-color:#CE8AA0"/>
			<stop  offset="1" style="stop-color:#82425D"/>
		</linearGradient>
		<path class="st1" d="M479.4,678.2h26.2l16.3-32.6c0,0,5.2-12.8-4.7-11.6c0,0-8.2-2.3-20.4,16.9L479.4,678.2z"/>
		<linearGradient id="SVGID_3_" gradientUnits="userSpaceOnUse" x1="727.6979" y1="467.6227" x2="425.136" y2="755.6384">
			<stop  offset="0" style="stop-color:#CE8AA0"/>
			<stop  offset="1" style="stop-color:#82425D"/>
		</linearGradient>
		<path class="st2" d="M516.1,671.2l29.1-9.3l14.6-28c0,0,7.6-19.6-2.9-19.1c0,0-14-0.7-28,30.8L516.1,671.2z"/>
		<linearGradient id="SVGID_4_" gradientUnits="userSpaceOnUse" x1="740.9521" y1="481.5463" x2="438.3902" y2="769.562">
			<stop  offset="0" style="stop-color:#CE8AA0"/>
			<stop  offset="1" style="stop-color:#82425D"/>
		</linearGradient>
		<path class="st3" d="M554.6,659.9l40.8-22.7c0,0,24.5-29.7,10.5-34.9c0,0-12.8-5.2-32,26.2L554.6,659.9z"/>
		<linearGradient id="SVGID_5_" gradientUnits="userSpaceOnUse" x1="539.0712" y1="269.4694" x2="236.5093" y2="557.485">
			<stop  offset="0" style="stop-color:#CE8AA0"/>
			<stop  offset="1" style="stop-color:#82425D"/>
		</linearGradient>
		<path class="st4" d="M699.4,475.4l37.1-105.9l-35.8,7.7c-7.7-34.7-21-67.2-38.8-96.6l26.3-15.2c7.1-4.1,9.5-13.2,5.4-20.3
			c-4.1-7.1-13.2-9.5-20.3-5.4l-28,16.2c-25.9-35.1-58.7-64.6-96.3-86.8l19.9-34.4c4.1-7.1,1.7-16.2-5.4-20.3
			c-7.1-4.1-16.2-1.7-20.3,5.4l-20.4,35.4c-37.6-17.8-79.1-28.5-122.5-30.5v-79c0-8.2-6.6-14.9-14.9-14.9c-8.2,0-14.9,6.6-14.9,14.9
			v79.1c-43.4,2.1-84.7,12.9-122.1,30.8l-21.1-36.6c-4.1-7.1-13.2-9.5-20.3-5.4c-7.1,4.1-9.5,13.2-5.4,20.3l20.7,35.8
			c-37.2,22.2-69.6,51.5-95.3,86.2l-30.4-17.6c-7.1-4.1-16.2-1.7-20.3,5.4c-4.1,7.1-1.7,16.2,5.4,20.3l28.6,16.5
			c-29.6,48.7-46.8,105.7-46.8,166.3c0,176.9,145.5,322.4,322.4,322.4c1.1,0,2.2-0.1,3.3-0.1c47.8,0.8,129.3-7.1,187.2-62.5
			c2.9-2.7,5.7-5.6,8.4-8.6c0,0,34.4-30.9,61.7-64.1c0,0,7-7,0-15.1c0,0-5.8-11.1-27.4,7.6c0,0-20.5,19.5-56.5,37.8
			c-20,10.1-44.7,19.9-73.3,25.7c0,0-51.8,9.9-68.7-11.6c0,0-11.6-18.6,15.7-29.7c0,0,25-13.4,30.9-28.5c0,0,13.4-21.5,5.2-34.9
			c0,0-8.7-26.8-26.8,5.2c0,0-28,33.2-51.3,37.9c0,0-47.8,24.5-56.5,46.6c0,0-76.8,30.5-151.4-31.1
			c-49.9-50.6-80.8-120.1-80.8-196.8c0-53.3,14.9-103.1,40.7-145.5l30.6,17.7c7.1,4.1,16.2,1.7,20.3-5.4c4.1-7.1,1.7-16.2-5.4-20.3
			l-28.6-16.5c21.8-28.5,48.9-52.6,79.9-71l13.5,23.4c4.1,7.1,13.2,9.5,20.3,5.4c7.1-4.1,9.5-13.2,5.4-20.3l-12.9-22.3
			c31.1-14.2,65.1-23,101.1-24.9v59.5c0,8.2,6.6,14.9,14.9,14.9c8.2,0,14.9-6.6,14.9-14.9v-59.5c36.1,1.8,70.3,10.5,101.5,24.6
			l-13.6,23.6c-4.1,7.1-1.7,16.2,5.4,20.3c7.1,4.1,16.2,1.7,20.3-5.4l14.2-24.7c31.3,18.5,58.7,42.9,80.7,71.6L578,294.7
			c-7.1,4.1-9.5,13.2-5.4,20.3c4.1,7.1,13.2,9.5,20.3,5.4l32.7-18.9c15.6,25.7,27.2,54.2,33.9,84.5l-37.3,8L699.4,475.4z"/>
	</g>
</g>
</svg>
